<svg width="137" height="44" viewBox="0 0 137 44" fill="none" xmlns="http://www.w3.org/2000/svg">
<g clip-path="url(#clip0_18_177)">
<path d="M71.7911 11.1608C71.7911 12.6984 70.5574 13.937 69.026 13.937C67.4945 13.937 66.2608 12.6984 66.2608 11.1608C66.2608 9.62324 67.4519 8.38463 69.026 8.38463C70.6 8.42734 71.7911 9.66595 71.7911 11.1608ZM60.3901 16.7559C60.3901 17.0122 60.3901 17.4393 60.3901 17.4393C60.3901 17.4393 59.0713 15.7309 56.2636 15.7309C51.6266 15.7309 48.0106 19.2759 48.0106 24.1876C48.0106 29.0566 51.584 32.6443 56.2636 32.6443C59.1138 32.6443 60.3901 30.8932 60.3901 30.8932V31.6193C60.3901 31.961 60.6453 32.2172 60.9857 32.2172H64.4315V16.158C64.4315 16.158 61.2835 16.158 60.9857 16.158C60.6453 16.158 60.3901 16.457 60.3901 16.7559ZM60.3901 27.0492C59.752 27.9889 58.4757 28.8004 56.9442 28.8004C54.2216 28.8004 52.1371 27.0919 52.1371 24.1876C52.1371 21.2833 54.2216 19.5748 56.9442 19.5748C58.4332 19.5748 59.7945 20.4291 60.3901 21.326V27.0492ZM66.984 16.158H71.0679V32.2172H66.984V16.158ZM127.988 15.7309C125.18 15.7309 123.862 17.4393 123.862 17.4393V8.42734H119.778V32.2172C119.778 32.2172 122.926 32.2172 123.224 32.2172C123.564 32.2172 123.819 31.9182 123.819 31.6193V30.8932C123.819 30.8932 125.138 32.6443 127.946 32.6443C132.583 32.6443 136.199 29.0566 136.199 24.1876C136.199 19.3186 132.583 15.7309 127.988 15.7309ZM127.307 28.7576C125.733 28.7576 124.5 27.9461 123.862 27.0065V21.2833C124.5 20.4291 125.861 19.5321 127.307 19.5321C130.03 19.5321 132.115 21.2406 132.115 24.1449C132.115 27.0492 130.03 28.7576 127.307 28.7576ZM117.651 22.6927V32.2599H113.567V23.1625C113.567 20.5145 112.716 19.4467 110.419 19.4467C109.185 19.4467 107.909 20.0874 107.1 21.027V32.2172H103.016V16.158H106.25C106.59 16.158 106.845 16.457 106.845 16.7559V17.4393C108.036 16.2007 109.61 15.7309 111.184 15.7309C112.971 15.7309 114.46 16.2434 115.651 17.2685C117.098 18.4644 117.651 20.0019 117.651 22.6927ZM93.1043 15.7309C90.2966 15.7309 88.9778 17.4393 88.9778 17.4393V8.42734H84.8938V32.2172C84.8938 32.2172 88.0419 32.2172 88.3397 32.2172C88.68 32.2172 88.9353 31.9182 88.9353 31.6193V30.8932C88.9353 30.8932 90.254 32.6443 93.0618 32.6443C97.6988 32.6443 101.315 29.0566 101.315 24.1876C101.357 19.3186 97.7413 15.7309 93.1043 15.7309ZM92.4236 28.7576C90.8496 28.7576 89.6159 27.9461 88.9778 27.0065V21.2833C89.6159 20.4291 90.9772 19.5321 92.4236 19.5321C95.1463 19.5321 97.2308 21.2406 97.2308 24.1449C97.2308 27.0492 95.1463 28.7576 92.4236 28.7576ZM81.3629 15.7309C82.5966 15.7309 83.2347 15.9444 83.2347 15.9444V19.7457C83.2347 19.7457 79.8314 18.5925 77.7044 21.027V32.2599H73.6204V16.158C73.6204 16.158 76.7685 16.158 77.0663 16.158C77.4066 16.158 77.6618 16.457 77.6618 16.7559V17.4393C78.4276 16.5424 80.0867 15.7309 81.3629 15.7309ZM38.9493 30.7651C38.7366 30.2525 38.5239 29.6973 38.3112 29.2275C37.9708 28.4587 37.6305 27.7326 37.3327 27.0492L37.2902 27.0065C34.3548 20.5999 31.2068 14.1079 27.8886 7.70125L27.7609 7.44499C27.4206 6.80433 27.0803 6.12096 26.74 5.43759C26.3145 4.66879 25.8891 3.85729 25.2085 3.0885C23.8472 1.38007 21.8903 0.44043 19.8057 0.44043C17.6787 0.44043 15.7643 1.38007 14.3605 3.00307C13.7223 3.77187 13.2544 4.58337 12.829 5.35216C12.4886 6.03554 12.1483 6.71891 11.808 7.35957L11.6804 7.61583C8.40468 14.0224 5.21409 20.5145 2.27874 26.9211L2.2362 27.0065C1.93841 27.6899 1.59808 28.416 1.25775 29.1848C1.04504 29.6546 0.832337 30.1671 0.61963 30.7223C0.0665942 32.3026 -0.103571 33.7975 0.109135 35.3351C0.577089 38.5384 2.70415 41.2292 5.6395 42.4251C6.74557 42.8949 7.89418 43.1085 9.08534 43.1085C9.42567 43.1085 9.85108 43.0657 10.1914 43.023C11.5953 42.8522 13.0417 42.3824 14.4455 41.5709C16.1897 40.5885 17.8488 39.1791 19.7207 37.129C21.5925 39.1791 23.2941 40.5885 24.9958 41.5709C26.3996 42.3824 27.846 42.8522 29.2499 43.023C29.5902 43.0657 30.0156 43.1085 30.356 43.1085C31.5471 43.1085 32.7383 42.8949 33.8018 42.4251C36.7797 41.2292 38.8642 38.4957 39.3322 35.3351C39.6725 33.8402 39.5023 32.3454 38.9493 30.7651ZM19.7632 32.986C17.466 30.0817 15.977 27.3482 15.4665 25.0418C15.2538 24.0595 15.2113 23.2053 15.3389 22.4365C15.424 21.7531 15.6792 21.1551 16.0196 20.6426C16.8278 19.4894 18.1892 18.7633 19.7632 18.7633C21.3372 18.7633 22.7411 19.4467 23.5068 20.6426C23.8472 21.1551 24.1024 21.7531 24.1875 22.4365C24.3151 23.2053 24.2726 24.1022 24.0599 25.0418C23.5494 27.3055 22.0604 30.039 19.7632 32.986ZM36.7372 34.9934C36.4394 37.2144 34.9504 39.1364 32.8659 39.9906C31.8449 40.4177 30.7388 40.5458 29.6328 40.4177C28.5692 40.2895 27.5057 39.9479 26.3996 39.3072C24.8681 38.453 23.3367 37.129 21.5499 35.1643C24.3576 31.7047 26.0593 28.5441 26.6974 25.7252C26.9952 24.4012 27.0377 23.2053 26.9101 22.0948C26.74 21.027 26.3571 20.0447 25.7615 19.1904C24.4427 17.2685 22.2306 16.158 19.7632 16.158C17.2958 16.158 15.0837 17.3112 13.7649 19.1904C13.1693 20.0447 12.7864 21.027 12.6163 22.0948C12.4461 23.2053 12.4886 24.4439 12.829 25.7252C13.4671 28.5441 15.2113 31.7474 17.9765 35.207C16.2323 37.1717 14.6582 38.4957 13.1268 39.3499C12.0207 39.9906 10.9572 40.3323 9.89362 40.4604C8.74501 40.5885 7.63894 40.4177 6.66049 40.0333C4.57597 39.1791 3.08702 37.2571 2.78923 35.0361C2.66161 33.9684 2.74669 32.9006 3.17211 31.7047C3.29973 31.2776 3.51244 30.8505 3.72514 30.3379C4.02293 29.6546 4.36326 28.9285 4.70359 28.2024L4.74613 28.117C7.68148 21.7531 10.8295 15.2611 14.1052 8.93987L14.2328 8.6836C14.5732 8.04294 14.9135 7.35957 15.2538 6.71891C15.5942 6.03554 15.977 5.39488 16.445 4.83964C17.3383 3.81458 18.5295 3.25934 19.8483 3.25934C21.1671 3.25934 22.3582 3.81458 23.2516 4.83964C23.7195 5.39488 24.1024 6.03554 24.4427 6.71891C24.7831 7.35957 25.1234 8.04294 25.4637 8.6836L25.5913 8.93987C28.8245 15.3038 31.9725 21.7958 34.9079 28.1597V28.2024C35.2482 28.8858 35.546 29.6546 35.8863 30.3379C36.099 30.8505 36.3117 31.2776 36.4394 31.7047C36.7797 32.8152 36.9073 33.8829 36.7372 34.9934Z" fill="#97602B"/>
</g>
<defs>
<clipPath id="clip0_18_177">
<rect width="136.175" height="42.668" fill="white" transform="translate(0.0241699 0.440918)"/>
</clipPath>
</defs>
</svg>
