<svg width="173" height="30" viewBox="0 0 173 30" fill="none" xmlns="http://www.w3.org/2000/svg">
<g clip-path="url(#clip0_18_163)">
<path d="M13.998 13.3478C16.9222 12.6033 20.2119 10.4939 20.2119 6.8955C20.2119 1.55993 15.2164 1.55993 12.6578 1.55993H2.17943C2.66679 1.80809 2.91047 3.17301 2.91047 5.03426C2.91047 7.26775 2.78863 10.3698 2.42311 14.5887L2.30127 16.3258C1.8139 23.6467 1.57022 27.8655 0.351807 28.8582H9.73358C16.9222 28.8582 21.3085 25.1357 21.3085 20.2965C21.4303 15.8295 18.2625 13.8442 13.998 13.3478ZM7.78412 10.618C7.90596 8.63267 8.14965 6.64734 8.39333 4.78609C9.00254 4.66201 9.73358 4.66201 10.2209 4.66201C13.3888 4.66201 14.8509 6.02692 14.8509 7.88817C14.8509 11.1143 11.683 12.3552 8.27149 12.3552H7.66228L7.78412 10.618ZM9.4899 25.3839C7.66228 25.3839 6.93123 24.8876 6.93123 24.6394C6.93123 22.9022 7.05308 21.5373 7.17492 19.6761L7.4186 15.7054H9.36806C12.9015 15.7054 15.7038 16.8221 15.7038 20.4206C15.7038 23.6467 13.267 25.3839 9.4899 25.3839ZM166.909 12.9756C164.228 11.2384 161.67 9.74941 161.67 7.76408C161.67 5.28242 163.741 4.28976 166.056 4.28976C168.736 4.28976 171.051 5.90284 172.148 7.88817L172.879 1.43585C171.051 1.43585 169.224 0.939513 166.3 0.939513C161.304 0.939513 156.43 2.92484 156.43 8.75675C156.43 12.7274 159.233 14.8368 163.619 17.5666C165.69 18.8075 167.396 20.1724 167.396 22.1577C167.396 24.6394 165.325 26.0043 162.523 26.0043C158.867 26.0043 156.43 23.8949 155.09 21.041L154.603 27.8655C157.405 28.9823 159.842 29.3545 162.157 29.3545C167.884 29.3545 172.757 26.1284 172.757 21.041C172.757 17.0703 169.833 14.8368 166.909 12.9756ZM147.78 14.0923C149.12 11.8588 155.334 1.80809 156.796 1.55993H149.607C149.851 1.80809 149.973 2.55259 149.973 3.17301C149.973 4.04159 149.607 4.78609 149.242 5.53059C147.536 8.26042 146.318 10.3698 144.368 13.2237C143.637 10.9902 142.297 8.01225 140.591 3.91751C139.495 1.43585 139.007 1.18768 137.18 1.18768C136.205 1.18768 134.012 1.31176 132.428 1.43585C133.402 1.93218 134.865 4.28976 136.205 6.77142C138.276 10.7421 139.616 14.0923 140.591 17.5666C140.713 19.9242 140.104 27.6174 138.885 28.8582H146.196C145.587 28.2378 145.465 26.6247 145.465 25.3839C145.465 22.4059 145.708 19.6761 146.074 17.6907C146.318 16.574 147.171 15.2091 147.78 14.0923ZM68.9484 24.2671L63.4656 16.8221C63.1001 16.3258 62.4909 15.4572 62.1253 15.2091C65.6587 14.0923 68.5829 11.7347 68.5829 7.39183C68.5829 2.05626 64.0748 1.55993 60.9069 1.55993H50.9159C51.4033 1.80809 51.647 3.04893 51.647 5.03426C51.647 7.26775 51.5251 10.3698 51.1596 14.5887L51.0378 16.3258C50.4286 24.7635 50.063 27.9896 48.9665 28.8582H56.2769C55.7896 28.61 55.5459 27.2451 55.5459 25.3839C55.5459 23.7708 55.6677 21.5373 55.7896 18.6834L55.9114 16.6981H56.0333C57.008 16.6981 57.3735 17.3185 57.9827 18.063L65.5369 28.7341C66.1461 29.6027 66.6335 29.975 68.7048 29.975C70.045 29.975 72.1163 29.8509 73.5784 29.7268C72.7255 29.1064 72.36 28.8582 68.9484 24.2671ZM57.6172 13.2237C57.2517 13.2237 56.7643 13.2237 56.3988 13.0997L56.5206 11.2384C56.7643 8.01225 56.8862 5.90284 57.1298 4.78609C57.739 4.66201 58.5919 4.66201 59.2011 4.66201C61.7598 4.66201 63.2219 5.90284 63.2219 8.01225C63.2219 11.2384 60.9069 13.2237 57.6172 13.2237ZM42.6307 16.574L41.5342 12.3552C40.1939 7.39183 38.61 1.55993 38.61 1.55993H32.7616C33.0053 1.80809 33.1271 2.42851 33.1271 3.04893C33.1271 3.66934 31.2995 7.76408 29.5937 11.4866L27.7661 15.5813C24.4764 22.6541 22.1614 26.997 20.3338 28.8582H26.7914C26.6695 28.61 26.6695 27.9896 26.6695 27.6174C26.6695 26.1284 28.0098 23.5226 28.4971 22.2818L29.1063 21.1651H32.2742C35.4421 21.1651 37.3916 20.7928 38.61 20.2965L39.2192 22.6541C41.0468 29.1064 41.2905 29.2305 43.6055 29.2305C44.3365 29.2305 46.1641 29.1064 47.7481 28.9823C45.9204 27.3692 44.702 23.8949 42.6307 16.574ZM30.5684 17.3185L34.9547 7.76408L37.6352 17.3185H30.5684ZM77.8428 15.9536C77.8428 10.4939 80.1578 4.16567 85.8844 4.16567C88.8086 4.16567 91.0017 5.77875 92.2201 8.26042L92.9512 1.31176C90.6362 1.31176 89.2959 0.81543 86.3717 0.81543C77.1118 0.81543 72.2382 7.88817 72.2382 16.9462C72.2382 23.5226 76.2589 29.3545 83.2039 29.3545C88.5649 29.3545 91.7327 26.6247 93.1948 22.0336C89.7833 24.5153 87.712 25.1357 85.397 25.1357C81.1326 25.1357 77.8428 21.9096 77.8428 15.9536ZM130.113 16.574L129.016 12.3552C128.529 10.4939 126.092 1.55993 126.092 1.55993H120.244C120.487 1.80809 120.609 2.42851 120.609 3.04893C120.609 3.79342 118.903 7.64 117.076 11.4866L115.248 15.5813C113.908 18.6834 112.446 21.5373 111.106 23.8949C109.034 25.2598 107.938 25.3839 103.551 25.3839C102.333 25.3839 101.846 25.1357 101.846 23.8949C101.846 21.1651 102.211 18.4352 102.333 15.7054L102.455 14.0923C102.942 6.77142 103.308 2.30443 104.404 1.68401H97.0938C97.5811 2.30443 97.703 3.29709 97.8248 5.15834C97.8248 7.39183 97.703 10.4939 97.3374 14.7127L97.2156 16.4499C96.7282 23.7708 96.3627 27.7415 95.2662 28.9823H114.273C114.152 28.7341 114.152 28.1137 114.152 27.7415C114.152 26.2525 115.248 24.1431 115.979 22.4059L116.588 21.2891H119.756C122.924 21.2891 124.874 20.9169 126.092 20.4206L126.701 22.7781C128.529 29.2305 128.773 29.3545 131.087 29.3545C131.819 29.3545 133.768 29.2305 135.23 29.1064C133.281 27.3692 132.062 23.8949 130.113 16.574ZM118.05 17.3185L122.437 7.76408L125.117 17.3185H118.05Z" fill="#97602B"/>
</g>
<defs>
<clipPath id="clip0_18_163">
<rect width="172.527" height="29.1595" fill="white" transform="translate(0.351807 0.814941)"/>
</clipPath>
</defs>
</svg>
