<svg width="144" height="39" viewBox="0 0 144 39" fill="none" xmlns="http://www.w3.org/2000/svg">
<g clip-path="url(#clip0_18_179)">
<path d="M77.8822 19.5062L58.6643 0.176758V38.7903L77.8822 19.5062Z" fill="#97602B"/>
<path d="M39.4466 19.5062L58.6645 0.176758H20.2288L39.4466 19.5062Z" fill="#97602B"/>
<path d="M0.96582 19.5062L20.2289 38.7903V0.176758L0.96582 19.5062Z" fill="#97602B"/>
<path d="M39.4466 19.5049L20.2288 38.789H58.6645L39.4466 19.5049Z" fill="#97602B"/>
<path d="M94.7487 20.6397H87.785V27.5366H84.3032V11.3833H87.785V18.008H94.7487V11.3833H98.2305V27.5366H94.7487V20.6397Z" fill="#97602B"/>
<path d="M106.641 27.8569C103.16 27.8569 100.311 26.4503 100.266 22.5935H103.747C103.793 24.3177 104.787 25.3613 106.687 25.3613C108.088 25.3613 109.716 24.6353 109.716 23.0472C109.716 21.7767 108.631 21.4137 106.822 20.8693L105.647 20.5516C103.114 19.8256 100.582 18.8274 100.582 15.9234C100.582 12.3389 103.928 11.1138 106.958 11.1138C110.078 11.1138 112.791 12.2028 112.836 15.7873H109.355C109.219 14.3353 108.36 13.4732 106.732 13.4732C105.421 13.4732 104.154 14.1539 104.154 15.6058C104.154 16.7856 105.24 17.1486 107.501 17.8745L108.857 18.2829C111.615 19.145 113.379 20.0979 113.379 22.8203C113.334 26.4503 109.807 27.8569 106.641 27.8569Z" fill="#97602B"/>
<path d="M115.323 11.429H120.93C121.97 11.3836 123.056 11.429 124.096 11.6105C126.04 12.0642 127.532 13.3347 127.532 15.5127C127.532 17.5999 126.221 18.6435 124.322 19.1426C126.492 19.551 128.12 20.64 128.12 23.0448C128.12 26.7201 124.503 27.5369 121.699 27.5369H115.368L115.323 11.429ZM120.93 18.1444C122.468 18.1444 124.05 17.8267 124.05 15.9664C124.05 14.2875 122.603 13.8338 121.156 13.8338H118.715V18.1444H120.93ZM121.247 25.132C122.875 25.132 124.457 24.769 124.457 22.7725C124.457 20.7761 123.101 20.4131 121.428 20.4131H118.669V25.132H121.247Z" fill="#97602B"/>
<path d="M137.164 27.8549C131.964 27.8549 129.657 24.5426 129.657 19.5968C129.657 14.651 132.235 11.0664 137.345 11.0664C140.555 11.0664 143.675 12.5184 143.766 16.1483H140.148C139.967 14.5149 138.882 13.6981 137.345 13.6981C134.179 13.6981 133.23 17.1012 133.23 19.6875C133.23 22.2739 134.179 25.2686 137.209 25.2686C138.792 25.2686 139.967 24.4065 140.193 22.773H143.811C143.449 26.4937 140.51 27.8549 137.164 27.8549Z" fill="#97602B"/>
</g>
<defs>
<clipPath id="clip0_18_179">
<rect width="142.845" height="38.5682" fill="white" transform="translate(0.96582 0.177246)"/>
</clipPath>
</defs>
</svg>
