<svg width="202" height="40" viewBox="0 0 202 40" fill="none" xmlns="http://www.w3.org/2000/svg">
<g clip-path="url(#clip0_18_165)">
<path fill-rule="evenodd" clip-rule="evenodd" d="M0.810791 39.5174H39.1762V0.782227H0.810791V39.5174ZM41.308 39.5174H79.6734V0.782227H41.308V39.5174ZM120.171 39.5174H81.8052V0.782227H120.171V39.5174ZM122.302 39.5174H160.668V0.782227H122.302V39.5174ZM201.165 39.5174H162.8V0.782227H201.165V39.5174Z" fill="#97602B"/>
<path fill-rule="evenodd" clip-rule="evenodd" d="M17.2991 19.4212V10.4653H12.6396V29.8329H17.2991V20.8786L22.2054 29.8329H27.3472L22.0098 20.1491L27.3472 10.4653H22.2054L17.2991 19.4212ZM57.0253 27.0456L56.1918 29.8329H51.2167L57.543 10.4653H63.4671L69.7662 29.8329H64.6468L63.8133 27.0456H57.0253ZM60.4185 16.0109L58.1746 23.2415H62.6625L60.4185 16.0109ZM103.36 29.8329H98.7022V21.295L92.4031 10.4653H97.9537L101.06 16.4176L104.109 10.4653H109.573L103.36 21.295V29.8329ZM138.02 27.0456L137.186 29.8329H132.209L138.537 10.4653H144.462L150.761 29.8329H145.641L144.808 27.0456H138.02ZM141.413 16.0109L139.169 23.2415H143.657L141.413 16.0109ZM179.288 19.4212V10.4653H174.628V29.8329H179.288V20.8786L184.194 29.8329H189.336L183.999 20.1491L189.336 10.4653H184.194L179.288 19.4212Z" fill="#FAFAFC"/>
</g>
<defs>
<clipPath id="clip0_18_165">
<rect width="200.354" height="38.7351" fill="white" transform="translate(0.810547 0.782715)"/>
</clipPath>
</defs>
</svg>
