<svg width="180" height="44" viewBox="0 0 180 44" fill="none" xmlns="http://www.w3.org/2000/svg">
<g clip-path="url(#clip0_18_194)">
<path d="M71.5022 15.7919H77.1566V33.5776H71.5022V15.7919Z" fill="#97602B"/>
<mask id="mask0_18_194" style="mask-type:luminance" maskUnits="userSpaceOnUse" x="0" y="0" width="181" height="44">
<path d="M0.97998 0.0032196H180V43.8135H0.97998V0.0032196Z" fill="white"/>
</mask>
<g mask="url(#mask0_18_194)">
<path d="M78.3376 15.7963H83.7839V18.2279H83.8878C85.206 16.3173 86.9058 15.2753 89.3688 15.2753C93.2539 15.2753 95.5434 18.0543 95.5434 22.0144V33.582H89.8891V23.1608C89.8891 21.2848 88.9525 19.9995 87.114 19.9995C85.2409 19.9995 83.9919 21.5628 83.9919 23.7512V33.582H78.3376V15.7963Z" fill="#97602B"/>
<path d="M77.7215 11.0372C77.7215 9.16129 76.2029 7.64073 74.3297 7.64073C72.4566 7.64073 70.938 9.16129 70.938 11.0372C70.938 12.913 72.4566 14.4336 74.3297 14.4336C76.2029 14.4336 77.7215 12.913 77.7215 11.0372Z" fill="#97602B"/>
<path d="M135.311 15.5396C135.15 15.525 134.965 15.5185 134.748 15.5185C132.598 15.5185 131.141 16.4564 129.892 18.5754H129.788V15.7965H124.376V33.582H130.031V25.5924C130.031 21.8905 132.078 20.175 135.311 20.4744V15.5396Z" fill="#97602B"/>
<path d="M163.059 22.36C160.804 21.9433 158.792 21.7696 158.792 20.5191C158.792 19.4074 159.868 18.8864 161.255 18.8864C162.816 18.8864 163.892 19.3727 164.1 20.9707H169.303C169.026 17.4622 166.32 15.2736 161.29 15.2736C157.093 15.2736 153.624 17.219 153.624 20.9707C153.624 25.139 156.919 25.9728 160.007 26.494C162.365 26.9109 164.516 27.0845 164.516 28.6824C164.516 29.8288 163.441 30.4541 161.741 30.4541C160.036 30.4541 158.908 29.7315 158.562 28.2657H153.174C153.571 31.9219 156.775 34.1362 161.776 34.1362C166.424 34.1362 169.858 32.1215 169.858 28.231C169.858 23.6801 166.181 22.8812 163.059 22.36Z" fill="#97602B"/>
<path d="M144.083 19.3036C145.921 19.3036 147.239 20.6584 147.447 22.7776H140.44C140.822 20.6584 141.932 19.3036 144.083 19.3036ZM144.395 30.0375C142.07 30.0375 140.752 28.5439 140.405 26.147H153.171C153.206 22.5344 152.165 19.4426 150.049 17.4974C148.523 16.108 146.511 15.2742 143.978 15.2742C138.567 15.2742 134.855 19.3383 134.855 24.6534C134.855 30.0375 138.463 34.1021 144.325 34.1021C146.58 34.1021 148.384 33.5115 149.876 32.4693C151.437 31.3925 152.477 29.864 152.859 28.2662H147.343C146.857 29.3777 145.886 30.0375 144.395 30.0375Z" fill="#97602B"/>
<path d="M179.816 29.3871C179.554 29.3975 179.203 29.4127 178.879 29.4127C177.665 29.4127 176.902 29.0652 176.902 27.6757V19.3386H179.816V15.7955H176.902V10.1679H171.387V15.7955H169.651V19.3386H171.387V28.8916C171.387 32.7129 173.745 33.7896 177.041 33.7896C178.298 33.7896 179.249 33.6953 179.816 33.5843V29.3871Z" fill="#97602B"/>
<path d="M105.641 29.3952C105.415 29.404 105.155 29.4127 104.912 29.4127C103.698 29.4127 102.935 29.0652 102.935 27.6757V19.3386H105.641V15.7955H102.935V10.1679H97.419V15.7955H95.5798V19.3386H97.419V28.8916C97.419 32.7129 99.7778 33.7896 103.073 33.7896C104.188 33.7896 105.061 33.7152 105.641 33.6211V29.3952Z" fill="#97602B"/>
<path d="M117.957 22.7776C117.749 20.6586 116.431 19.3036 114.592 19.3036C112.441 19.3036 111.331 20.6586 110.95 22.7776H117.957ZM105.365 24.6534C105.365 19.3385 109.077 15.2743 114.488 15.2743C117.02 15.2743 119.032 16.108 120.559 17.4974C122.675 19.4428 123.715 22.5344 123.681 26.1472H110.915C111.262 28.5439 112.58 30.0377 114.905 30.0377C116.396 30.0377 117.367 29.3777 117.853 28.2662H123.369C122.987 29.864 121.946 31.3925 120.385 32.4695C118.894 33.5115 117.09 34.1021 114.835 34.1021C108.973 34.1021 105.365 30.0377 105.365 24.6534Z" fill="#97602B"/>
<path d="M61.6829 20.4165C63.9031 20.4165 65.1518 19.0964 65.1518 17.1162C65.1518 15.1363 63.8682 13.9205 61.6829 13.9205H57.3465V20.4165H61.6829ZM51.6221 8.74459H61.4411C64.4589 8.74459 66.679 9.57822 68.2053 11.0373C69.8011 12.5309 70.703 14.65 70.703 17.1511C70.703 21.9101 67.4075 25.2798 62.3082 25.2798H57.3465V33.582H51.6221V8.74459Z" fill="#97602B"/>
<path d="M43.8601 21.9106C43.8601 33.7173 34.3022 43.2886 22.5121 43.2886C10.722 43.2886 1.16406 33.7173 1.16406 21.9106C1.16406 10.1037 10.722 0.53257 22.5121 0.53257C34.3022 0.53257 43.8601 10.1037 43.8601 21.9106Z" fill="white"/>
<path d="M22.5121 0.53257C10.722 0.53257 1.16406 10.1039 1.16406 21.9106C1.16406 30.9674 6.79104 38.7097 14.7323 41.8246C14.5458 40.1332 14.3771 37.5319 14.8063 35.6854C15.1943 34.0169 17.3097 25.0591 17.3097 25.0591C17.3097 25.0591 16.6711 23.7785 16.6711 21.8852C16.6711 18.9125 18.3916 16.6933 20.5339 16.6933C22.3553 16.6933 23.235 18.0626 23.235 19.7046C23.235 21.5389 22.0688 24.2812 21.467 26.8226C20.9641 28.9504 22.5326 30.6856 24.6283 30.6856C28.4226 30.6856 31.3392 26.6792 31.3392 20.8961C31.3392 15.7775 27.6664 12.1987 22.422 12.1987C16.3477 12.1987 12.7823 16.7611 12.7823 21.4762C12.7823 23.3136 13.4892 25.2838 14.3711 26.3549C14.5456 26.5666 14.5712 26.752 14.5192 26.968C14.3571 27.6432 13.997 29.0953 13.9263 29.3925C13.8332 29.7838 13.6169 29.8669 13.2123 29.6783C10.5461 28.4355 8.87908 24.5318 8.87908 21.3964C8.87908 14.6528 13.7719 8.4596 22.9846 8.4596C30.3902 8.4596 36.1453 13.7442 36.1453 20.8066C36.1453 28.1742 31.5063 34.1037 25.0675 34.1037C22.9043 34.1037 20.8706 32.9783 20.1745 31.6489C20.1745 31.6489 19.1041 35.7306 18.8445 36.7309C18.3626 38.5877 17.0615 40.9153 16.1913 42.3353C18.1887 42.9546 20.3113 43.2886 22.5121 43.2886C34.3024 43.2886 43.8603 33.7173 43.8603 21.9106C43.8603 10.1039 34.3024 0.53257 22.5121 0.53257Z" fill="#97602B"/>
</g>
</g>
<defs>
<clipPath id="clip0_18_194">
<rect width="179.02" height="43.8103" fill="white" transform="translate(0.979736)"/>
</clipPath>
</defs>
</svg>
