<svg width="207" height="15" viewBox="0 0 207 15" fill="none" xmlns="http://www.w3.org/2000/svg">
<g clip-path="url(#clip0_18_191)">
<path d="M182.442 3.07253V6.24118H206.946V8.94319H182.442V12.1118H206.946V14.8063H179.324V0.378048H206.946V3.07253H182.442ZM172.525 6.22613H153.585V0.355469H150.474V14.7837H153.585V9.39478H172.518V14.7837H175.629V0.355469H172.518L172.525 6.22613ZM121.144 3.56175V11.6151C121.13 13.3763 122.526 14.8063 124.255 14.8214C124.263 14.8214 124.27 14.8214 124.27 14.8214L146.838 14.7988V11.6301H124.691C124.477 11.6226 124.3 11.457 124.285 11.2388V3.99829C124.314 3.73486 124.536 3.5467 124.795 3.55423H146.838V0.378048H124.307C122.571 0.370522 121.159 1.80055 121.144 3.56175ZM114.287 6.24118L94.4083 6.24871C94.1348 6.26376 93.8984 6.05302 93.8836 5.77454C93.8836 5.76701 93.8836 5.75949 93.8836 5.75196V3.58433C93.8836 3.29833 94.1053 3.07253 94.3861 3.07253C94.3935 3.07253 94.4009 3.07253 94.4083 3.07253H116.976V0.378048H93.8393C92.1248 0.400628 90.743 1.83066 90.7651 3.58433V5.74443C90.7651 7.51316 92.1766 8.95072 93.9132 8.95072L113.792 8.94319C114.065 8.92814 114.301 9.15393 114.316 9.43241V9.43994V11.6076C114.316 11.886 114.094 12.1118 113.821 12.1043C113.814 12.1043 113.806 12.1043 113.792 12.1043H91.1863V14.8063H114.294C116.031 14.8063 117.435 13.3838 117.442 11.6151V9.44746C117.427 7.67874 116.023 6.24871 114.287 6.24118ZM87.1516 14.7311V14.7687H84.0183V14.2042C84.0183 12.4355 82.6069 10.9979 80.8703 10.9979H63.5044V14.7913H60.3934V0.370522H83.9887C85.7179 0.370522 87.1146 1.79303 87.122 3.55423V6.67772C87.1294 8.40128 85.7992 9.81626 84.107 9.884C85.9692 10.7571 87.1516 12.6537 87.1516 14.7311ZM83.9961 4.09613C83.9961 3.79507 83.7597 3.55423 83.4641 3.5467H63.5044V7.82927H83.5232C83.7966 7.80669 84.0035 7.57337 83.9961 7.30242V4.09613ZM56.632 3.55423V11.6076C56.6394 13.3612 55.2501 14.7913 53.5283 14.7988C53.5209 14.7988 53.5135 14.7988 53.5061 14.7988H33.576C31.8395 14.8138 30.428 13.3913 30.4132 11.6226V11.6151V3.56175C30.4206 1.79303 31.8395 0.362995 33.576 0.370522H53.5505C55.2649 0.393101 56.6394 1.81561 56.632 3.55423ZM53.5283 4.09613C53.5209 3.79507 53.2771 3.55423 52.9815 3.55423H34.0638C33.8051 3.5467 33.5834 3.74239 33.5539 3.99829V11.2388C33.5687 11.457 33.746 11.6226 33.9603 11.6301H53.0332C53.314 11.6151 53.5283 11.3818 53.5357 11.1033L53.5283 4.09613ZM26.7553 3.55423V7.80669C26.7553 9.56789 25.3587 10.9979 23.6295 10.9979C23.6221 10.9979 23.6221 10.9979 23.6147 10.9979H3.21166V14.7988H0.100586V0.370522H23.6147C25.3439 0.362995 26.7479 1.77797 26.7553 3.53917C26.7627 3.5467 26.7627 3.5467 26.7553 3.55423ZM23.6369 4.09613C23.6369 3.79507 23.4004 3.55423 23.1048 3.5467H3.21166V7.82927H23.1639C23.4373 7.81422 23.6443 7.5809 23.6369 7.30242V4.09613Z" fill="#97602B"/>
</g>
<defs>
<clipPath id="clip0_18_191">
<rect width="206.847" height="14.4793" fill="white" transform="translate(0.100342 0.354004)"/>
</clipPath>
</defs>
</svg>
