<svg width="191" height="31" viewBox="0 0 191 31" fill="none" xmlns="http://www.w3.org/2000/svg">
<g clip-path="url(#clip0_18_188)">
<path d="M7.5042 8.83256C7.36459 8.2732 7.39949 7.71384 7.46929 7.39921C7.64381 6.52521 8.23716 5.5813 9.9474 5.5813C11.5529 5.5813 12.4604 6.56017 12.4604 8.06344C12.4604 8.55288 12.4604 9.74151 12.4604 9.74151H19.2316V7.81872C19.2665 1.87556 13.9263 0.931641 10.087 0.931641C5.27041 0.931641 1.32638 2.53979 0.593423 6.97969C0.384006 8.20328 0.349103 9.28703 0.663229 10.6505C1.84993 16.2091 11.518 17.8172 12.9141 21.3482C13.1934 22.0124 13.0887 22.8514 12.984 23.3758C12.7745 24.2848 12.1463 25.2287 10.3313 25.2287C8.62109 25.2287 7.60891 24.2498 7.60891 22.7466V20.1246H0.279297V22.2222C0.279297 28.3052 5.06099 30.1231 10.1568 30.1231C15.0781 30.1231 19.092 28.445 19.7551 23.9002C20.0692 21.5579 19.8249 20.0197 19.7202 19.4603C18.6033 13.692 8.27206 12.0139 7.5042 8.83256ZM95.9132 8.86752C95.8085 8.34312 95.8434 7.7488 95.8783 7.46913C96.0877 6.59513 96.6462 5.65122 98.3564 5.65122C99.9271 5.65122 100.835 6.63009 100.835 8.0984C100.835 8.58784 100.835 9.77647 100.835 9.77647H107.536V7.88864C107.536 2.01539 102.3 1.10644 98.496 1.10644C93.7143 1.10644 89.8052 2.67963 89.0723 7.08457C88.8978 8.2732 88.8279 9.35695 89.1421 10.7204C90.2939 16.2091 99.8573 17.8172 101.253 21.3132C101.498 21.9774 101.428 22.8165 101.288 23.3059C101.079 24.2149 100.486 25.1238 98.6706 25.1238C96.9952 25.1238 95.9481 24.145 95.9481 22.6766V20.0547H88.7232V22.1173C88.7232 28.1304 93.4351 29.9483 98.496 29.9483C103.348 29.9483 107.361 28.2702 107.99 23.7954C108.304 21.4531 108.059 19.9498 107.955 19.3904C106.873 13.7269 96.6811 12.0489 95.9132 8.86752ZM157.622 23.7254L151.234 1.80564H141.147V28.7596H147.814L147.43 6.14065L154.306 28.7596H163.974V1.80564H157.273L157.622 23.7254ZM29.3883 1.80564L24.3274 29.0393H31.657L35.4614 3.83331L39.1611 29.0393H46.4558L41.4647 1.80564H29.3883ZM70.4341 1.80564L67.0136 23.0962L63.5932 1.80564H52.494L51.9007 29.0393H58.7067L58.8813 3.83331L63.5583 29.0393H70.4341L75.1111 3.83331L75.2856 29.0393H82.0917L81.4983 1.80564H70.4341ZM133.608 1.80564H126.732V21.9425C126.732 22.2921 126.732 22.6766 126.663 22.9913C126.523 23.6555 125.965 24.984 124.045 24.984C122.16 24.984 121.602 23.6905 121.462 22.9913C121.392 22.7116 121.392 22.2921 121.392 21.9425V1.80564H114.516V21.3132C114.516 21.8026 114.551 22.8514 114.586 23.0962C115.075 28.1653 119.054 29.8434 124.045 29.8434C129.036 29.8434 133.05 28.2003 133.539 23.0962C133.573 22.8165 133.643 21.8026 133.608 21.3132V1.80564ZM180.797 13.7269V17.7123H183.589V21.6628C183.589 22.0124 183.589 22.397 183.52 22.7116C183.415 23.4458 182.717 24.7043 180.727 24.7043C178.773 24.7043 178.075 23.4458 177.97 22.7116C177.935 22.397 177.9 22.0124 177.9 21.6628V9.21712C177.9 8.76264 177.935 8.30816 178.04 7.9236C178.179 7.25937 178.773 5.96585 180.727 5.96585C182.821 5.96585 183.31 7.32929 183.45 7.9236C183.52 8.30816 183.52 8.9724 183.52 8.9724V10.4757H190.36V9.56671C190.36 9.56671 190.395 8.6228 190.326 7.7488C189.802 2.67963 185.579 1.07148 180.762 1.07148C175.946 1.07148 171.827 2.71459 171.234 7.78376C171.164 8.23824 171.094 9.07728 171.094 9.60167V21.0335C171.094 21.523 171.094 21.9075 171.199 22.8165C171.653 27.7808 175.946 29.5288 180.762 29.5288C185.614 29.5288 189.872 27.7808 190.326 22.8165C190.395 21.9075 190.43 21.523 190.43 21.0335V13.7269H180.797Z" fill="#97602B"/>
</g>
<defs>
<clipPath id="clip0_18_188">
<rect width="190.151" height="29.1565" fill="white" transform="translate(0.279297 0.933594)"/>
</clipPath>
</defs>
</svg>
