<svg width="173" height="42" viewBox="0 0 173 42" fill="none" xmlns="http://www.w3.org/2000/svg">
<g clip-path="url(#clip0_18_153)">
<path d="M30.8324 9.03466C28.0388 7.23007 26.3626 4.15631 26.3526 0.854492H19.2887L19.2787 28.9943C19.149 32.2465 16.3953 34.7848 13.1227 34.6659C9.85018 34.5469 7.296 31.7904 7.41573 28.5382C7.53545 25.3653 10.1595 22.8666 13.3522 22.8666C13.9508 22.8666 14.5395 22.9558 15.1082 23.1442V15.9754C14.5295 15.8961 13.9409 15.8564 13.3522 15.8465C6.18852 15.8465 0.351807 21.647 0.351807 28.7662C0.351807 35.9053 6.16856 41.6859 13.3522 41.6859C20.5359 41.6859 26.3526 35.9053 26.3526 28.7662V14.498C29.2161 16.5406 32.6583 17.6412 36.1802 17.6412V10.6211C34.2846 10.6211 32.4288 10.0758 30.8324 9.03466Z" fill="#97602B"/>
<path d="M42.9348 10.6592H65.2041L63.1588 16.9852H57.372V40.4053H50.1783V16.9852L42.9348 16.9951V10.6592Z" fill="#97602B"/>
<path d="M101.701 10.6592H124.489L122.444 16.9852H116.158V40.4053H108.945V16.9852L101.701 16.9951V10.6592Z" fill="#97602B"/>
<path d="M66.571 20.1196H73.7048V40.4065H66.611L66.571 20.1196Z" fill="#97602B"/>
<path d="M76.5383 10.5723H83.6721V24.424L90.746 17.5328H99.2566L90.317 26.1592L100.334 40.4076H92.4721L85.7873 30.522L83.6721 32.5645V40.3977H76.5383V10.5723Z" fill="#97602B"/>
<path d="M149.083 10.5723H156.217V24.424L163.291 17.5328H171.812L162.872 26.1592L172.889 40.4076H165.027L158.342 30.522L156.227 32.5645V40.3977H149.093V10.5723H149.083Z" fill="#97602B"/>
<path d="M70.1331 17.7982C72.1168 17.7982 73.7249 16.2001 73.7249 14.2287C73.7249 12.2573 72.1168 10.6592 70.1331 10.6592C68.1494 10.6592 66.5413 12.2573 66.5413 14.2287C66.5413 16.2001 68.1494 17.7982 70.1331 17.7982Z" fill="#97602B"/>
<path d="M133.958 16.1143C127.213 16.1143 121.735 21.5479 121.735 28.2507C121.735 34.9534 127.203 40.397 133.948 40.397C140.692 40.397 146.17 34.9634 146.17 28.2606C146.18 21.5578 140.712 16.1242 133.958 16.1143ZM133.958 34.1602C130.675 34.1602 128.021 31.5227 128.021 28.2606C128.021 24.9984 130.675 22.3609 133.958 22.3609C137.24 22.3609 139.894 24.9984 139.894 28.2606C139.904 31.5227 137.24 34.1602 133.958 34.1602Z" fill="#97602B"/>
</g>
<defs>
<clipPath id="clip0_18_153">
<rect width="172.527" height="40.8314" fill="white" transform="translate(0.351807 0.85498)"/>
</clipPath>
</defs>
</svg>
