<svg width="279" height="22" viewBox="0 0 279 22" fill="none" xmlns="http://www.w3.org/2000/svg">
<g clip-path="url(#clip0_18_168)">
<path d="M5.06413 4.10887L14.6475 21.2512L25.7255 21.2801L35.1331 4.10887H39.8515V0.986816H25.6669V4.10887H29.7699L22.9121 16.5971L15.9663 4.10887H20.9485V0.986816H0.345703V4.10887H5.06413Z" fill="#97602B"/>
<path d="M127.069 4.10877V1.01562H146.06V4.10877H141.342V18.1291H145.738C149.811 18.1291 152.478 15.4696 152.478 11.885H155.614V21.28H127.098V18.1002H131.875V4.07986H127.069V4.10877Z" fill="#97602B"/>
<path d="M81.0277 0.553223C71.503 0.553223 66.4329 5.2363 66.4329 11.1335C66.4329 17.0885 71.2978 21.8583 81.0863 21.8583C90.8749 21.8583 95.6812 17.0885 95.6812 11.1335C95.6812 5.26521 90.5818 0.553223 81.0277 0.553223ZM80.9398 18.6496C77.4523 18.5917 75.9283 14.8048 75.9869 11.0179C76.0456 7.11531 77.9505 3.70418 81.2036 3.762C84.4566 3.81981 86.1858 7.28876 86.1271 11.1913C86.0685 14.8626 84.5153 18.7074 80.9398 18.6496Z" fill="#97602B"/>
<path d="M187.969 4.10887L197.552 21.2512L208.63 21.2801L218.038 4.10887H222.756V0.986816H208.572V4.10887H212.675L205.817 16.5971L198.871 4.10887H203.853V0.986816H183.25V4.10887H187.969Z" fill="#97602B"/>
<path d="M263.933 0.553223C254.408 0.553223 249.338 5.2363 249.338 11.1335C249.338 17.0885 254.203 21.8583 263.991 21.8583C273.78 21.8583 278.586 17.0885 278.586 11.1335C278.586 5.26521 273.487 0.553223 263.933 0.553223ZM263.845 18.6496C260.357 18.5917 258.833 14.8048 258.892 11.0179C258.951 7.11531 260.856 3.70418 264.109 3.762C267.362 3.81981 269.091 7.28876 269.032 11.1913C268.974 14.8626 267.42 18.7074 263.845 18.6496Z" fill="#97602B"/>
</g>
<defs>
<clipPath id="clip0_18_168">
<rect width="278.27" height="21.334" fill="white" transform="translate(0.345947 0.525391)"/>
</clipPath>
</defs>
</svg>
